<?xml version="1.0" ?><svg id="Layer_1" style="enable-background:new 0 0 120 120;" version="1.1" viewBox="0 0 120 120" xml:space="preserve" xmlns="http://www.w3.org/2000/svg" xmlns:xlink="http://www.w3.org/1999/xlink"><style type="text/css">
	.st0{fill:#75ABF9;}
	.st1{fill:#FFFFFF;}
	.st2{fill:#2ADD87;}
</style><g><path class="st0" d="M99.2,47.3C99.2,25.7,81.7,8.1,60,8.1S20.8,25.6,20.8,47.3c0,18,12.1,33.1,28.6,37.7L60,99.9L70.6,85   C87.1,80.3,99.2,65.2,99.2,47.3z"/><circle class="st1" cx="60" cy="47.3" r="21.7"/><ellipse class="st2" cx="60" cy="109.2" rx="16.4" ry="2.8"/><path class="st0" d="M71.8,44.8l-10.1-9.1c-1-0.9-2.4-0.9-3.4,0l-10.1,9.1c-1,0.9-0.4,2.6,1,2.6h2.2v10.2c0,1.1,0.9,1.9,1.9,1.9h3   c0.3,0,0.6-0.3,0.6-0.6V54c0-1.1,0.9-1.9,1.9-1.9h2c1.1,0,1.9,0.9,1.9,1.9v4.9c0,0.3,0.3,0.6,0.6,0.6h3c1.1,0,1.9-0.9,1.9-1.9V47.4   h2.2C72.2,47.4,72.8,45.7,71.8,44.8z"/></g></svg>